<svg xmlns="http://www.w3.org/2000/svg" width="115" height="115" fill="none" class="absolute" style="top:-30px;left:-55px"><g fill="#0851FF" opacity=".05"><circle cx="4.662" cy="22.275" r="4.662"/><circle cx="22.275" cy="22.275" r="4.662"/><circle cx="39.887" cy="22.275" r="4.662"/><circle cx="57.5" cy="22.275" r="4.662"/><circle cx="75.113" cy="22.275" r="4.662"/><circle cx="92.725" cy="22.275" r="4.662"/><circle cx="110.338" cy="22.275" r="4.662"/><circle cx="4.662" cy="4.662" r="4.662"/><circle cx="22.275" cy="4.662" r="4.662"/><circle cx="39.887" cy="4.662" r="4.662"/><circle cx="57.5" cy="4.662" r="4.662"/><circle cx="75.113" cy="4.662" r="4.662"/><circle cx="92.725" cy="4.662" r="4.662"/><circle cx="110.338" cy="4.662" r="4.662"/><circle cx="4.662" cy="39.887" r="4.662"/><circle cx="22.275" cy="39.887" r="4.662"/><circle cx="39.887" cy="39.887" r="4.662"/><circle cx="57.5" cy="39.887" r="4.662"/><circle cx="75.113" cy="39.887" r="4.662"/><circle cx="92.725" cy="39.887" r="4.662"/><circle cx="110.338" cy="39.887" r="4.662"/><circle cx="4.662" cy="57.5" r="4.662"/><circle cx="22.275" cy="57.5" r="4.662"/><circle cx="39.887" cy="57.5" r="4.662"/><circle cx="57.5" cy="57.5" r="4.662"/><circle cx="75.113" cy="57.5" r="4.662"/><circle cx="92.725" cy="57.5" r="4.662"/><circle cx="110.338" cy="57.5" r="4.662"/><circle cx="4.662" cy="75.113" r="4.662"/><circle cx="22.275" cy="75.113" r="4.662"/><circle cx="39.887" cy="75.113" r="4.662"/><circle cx="57.5" cy="75.113" r="4.662"/><circle cx="75.113" cy="75.113" r="4.662"/><circle cx="92.725" cy="75.113" r="4.662"/><circle cx="110.338" cy="75.113" r="4.662"/><circle cx="4.662" cy="92.725" r="4.662"/><circle cx="22.275" cy="92.725" r="4.662"/><circle cx="39.887" cy="92.725" r="4.662"/><circle cx="57.5" cy="92.725" r="4.662"/><circle cx="75.113" cy="92.725" r="4.662"/><circle cx="92.725" cy="92.725" r="4.662"/><circle cx="110.338" cy="92.725" r="4.662"/><circle cx="4.662" cy="110.338" r="4.662"/><circle cx="22.275" cy="110.338" r="4.662"/><circle cx="39.887" cy="110.338" r="4.662"/><circle cx="57.5" cy="110.338" r="4.662"/><circle cx="75.113" cy="110.338" r="4.662"/><circle cx="92.725" cy="110.338" r="4.662"/><circle cx="110.338" cy="110.338" r="4.662"/></g></svg>