<svg xmlns="http://www.w3.org/2000/svg" width="250" height="75" fill="none"><path fill="#263238" d="M100.287 31.236c-.113-1.115-.512-1.944-1.208-2.486-.695-.543-1.74-.819-3.11-.819-1.29 0-2.261.215-2.916.655-.655.44-.982 1.074-.982 1.903 0 .696.256 1.258.767 1.668.512.42 1.381.777 2.599 1.084 1.248.307 2.425.604 3.55.9 1.126.297 2.087.625 2.896 1.003.48.215.931.47 1.34.757a4.77 4.77 0 0 1 1.084 1.044c.307.41.543.91.717 1.473.174.563.266 1.238.266 1.995 0 1.197-.215 2.23-.635 3.09a5.798 5.798 0 0 1-1.8 2.149c-.778.573-1.689.982-2.753 1.258s-2.22.41-3.489.41c-1.35 0-2.588-.144-3.703-.44-1.115-.297-2.077-.748-2.885-1.361a6.58 6.58 0 0 1-1.903-2.272c-.46-.9-.696-1.964-.717-3.192h4.39c.04 1.115.49 1.995 1.36 2.64.87.644 2.026.962 3.49.962 1.35 0 2.393-.266 3.13-.798.726-.532 1.095-1.29 1.095-2.272 0-.327-.051-.624-.144-.88a1.957 1.957 0 0 0-.521-.736 3.735 3.735 0 0 0-1.034-.624 10.24 10.24 0 0 0-1.667-.512c-1.35-.307-2.497-.573-3.418-.798a14.196 14.196 0 0 1-2.537-.87c-1.177-.522-2.077-1.207-2.701-2.046-.624-.839-.931-1.944-.931-3.325 0-.982.164-1.883.491-2.701a5.377 5.377 0 0 1 1.494-2.108c.665-.593 1.494-1.043 2.486-1.37.992-.328 2.159-.492 3.489-.492 1.37 0 2.599.174 3.663.522 1.064.348 1.964.839 2.701 1.473a6.47 6.47 0 0 1 1.698 2.261 7.8 7.8 0 0 1 .675 2.886h-4.327v-.031zm9.3 8.389c.061 1.228.419 2.19 1.064 2.916.644.727 1.493 1.085 2.537 1.085.696 0 1.32-.164 1.852-.47.532-.318.88-.758 1.033-1.33h4.389c-.501 1.657-1.371 2.935-2.619 3.826-1.248.9-2.731 1.34-4.45 1.34-5.372 0-8.052-2.926-8.052-8.778 0-1.249.174-2.364.521-3.377a7.354 7.354 0 0 1 1.525-2.588 6.686 6.686 0 0 1 2.435-1.658c.962-.378 2.067-.573 3.305-.573 2.486 0 4.368.798 5.647 2.394s1.914 3.99 1.914 7.203h-11.101v.01zm6.711-2.69c-.02-.594-.122-1.105-.307-1.556a3.21 3.21 0 0 0-.736-1.115 2.948 2.948 0 0 0-1.044-.655 3.492 3.492 0 0 0-1.207-.214c-.849 0-1.586.307-2.21.93-.624.625-.982 1.494-1.064 2.6h6.568v.01zm16.268 7.469c-.307.716-.859 1.278-1.657 1.688-.798.399-1.719.603-2.763.603-1.33 0-2.455-.235-3.356-.706-.91-.47-1.637-1.084-2.189-1.852a7.547 7.547 0 0 1-1.207-2.65 12.863 12.863 0 0 1-.379-3.079c0-1.248.184-2.384.553-3.417.368-1.034.869-1.924 1.503-2.65a6.679 6.679 0 0 1 2.231-1.699 6.404 6.404 0 0 1 2.752-.603c2.005 0 3.509.808 4.522 2.425v-1.995h4.257v16.267c0 1.218-.205 2.292-.625 3.223a6.631 6.631 0 0 1-1.698 2.322c-.716.625-1.576 1.095-2.558 1.423a9.854 9.854 0 0 1-3.141.49 10.16 10.16 0 0 1-3.11-.47 7.575 7.575 0 0 1-2.476-1.34 5.966 5.966 0 0 1-1.617-2.108c-.388-.829-.593-1.77-.593-2.813h3.96c0 .982.317 1.739.961 2.27.645.533 1.504.799 2.568.799 1.136 0 2.098-.307 2.885-.931.788-.624 1.177-1.473 1.177-2.537v-2.66zm-3.499-1.054c1.044 0 1.913-.4 2.599-1.197.685-.798 1.033-1.883 1.033-3.254 0-3.448-1.207-5.177-3.632-5.177s-3.632 1.637-3.632 4.911c0 1.443.348 2.588 1.033 3.438.686.849 1.545 1.279 2.599 1.279zm10.282-14.928-1.013-1.8 6.774-3.96 1.534 2.68-7.295 3.08zm-.071 18.14V30.458h4.256v16.104h-4.256zm15.817-10.609h3.96v4.583c0 .85-.123 1.668-.379 2.435a5.847 5.847 0 0 1-1.177 2.067c-.532.604-1.207 1.074-2.025 1.422-.819.348-1.791.522-2.926.522-1.177 0-2.18-.174-3.008-.522-.829-.348-1.515-.819-2.047-1.412a5.51 5.51 0 0 1-1.166-2.067 8.654 8.654 0 0 1-.358-2.486V26.1h4.195v4.358h8.901v3.008h-8.901v6.61c0 1.023.194 1.82.573 2.373.378.553 1.013.84 1.882.84.849 0 1.484-.277 1.883-.82.399-.541.603-1.319.603-2.322v-4.194h-.01zm14.569-.625c-.112-.788-.388-1.34-.849-1.657-.46-.317-1.176-.47-2.159-.47-.808 0-1.432.102-1.862.306-.429.205-.654.553-.654 1.034 0 .48.214.849.654 1.094.44.246 1.095.502 1.965.737.921.266 1.79.501 2.619.706.829.204 1.565.43 2.189.675.85.348 1.504.829 1.965 1.422.46.594.685 1.422.685 2.476 0 1.678-.593 2.988-1.78 3.929-1.187.941-2.947 1.412-5.259 1.412-2.486 0-4.389-.522-5.709-1.576-1.32-1.043-2.005-2.394-2.046-4.03h4.389c0 .767.297 1.35.88 1.77.593.419 1.412.623 2.456.623.767 0 1.432-.122 1.995-.378.562-.256.849-.686.849-1.29 0-.562-.256-.971-.768-1.207a10.156 10.156 0 0 0-1.821-.624 57.304 57.304 0 0 1-3.274-.88c-.828-.266-1.524-.583-2.097-.951-.767-.481-1.289-1.023-1.586-1.637a4.516 4.516 0 0 1-.44-1.995c0-.675.123-1.31.358-1.903.236-.594.635-1.095 1.177-1.525.542-.43 1.248-.757 2.107-1.002.86-.236 1.903-.358 3.131-.358 2.333 0 4.052.45 5.157 1.34 1.105.9 1.708 2.22 1.821 3.96h-4.093zm8.84 4.298c.062 1.227.42 2.189 1.064 2.915.645.727 1.494 1.085 2.538 1.085.695 0 1.319-.164 1.851-.47.533-.318.88-.758 1.034-1.33h4.389c-.501 1.657-1.371 2.936-2.619 3.826-1.248.9-2.732 1.34-4.451 1.34-5.371 0-8.052-2.926-8.052-8.778 0-1.249.174-2.364.522-3.377a7.353 7.353 0 0 1 1.525-2.588 6.687 6.687 0 0 1 2.435-1.658c.961-.378 2.066-.573 3.304-.573 2.486 0 4.369.798 5.648 2.395 1.279 1.596 1.913 3.99 1.913 7.202h-11.101v.01zm6.712-2.691c-.021-.594-.123-1.105-.307-1.556a3.213 3.213 0 0 0-.737-1.115 2.946 2.946 0 0 0-1.043-.655 3.496 3.496 0 0 0-1.208-.214c-.849 0-1.585.307-2.209.93-.625.625-.983 1.494-1.065 2.6h6.569v.01zm-5.371-8.513-1.013-1.8 6.773-3.96 1.534 2.68-7.294 3.08zm21.639 15.982c-.307.716-.86 1.278-1.658 1.688-.798.399-1.719.603-2.762.603-1.33 0-2.456-.235-3.356-.706-.911-.47-1.637-1.084-2.19-1.852a7.583 7.583 0 0 1-1.207-2.65 12.863 12.863 0 0 1-.379-3.079c0-1.248.185-2.384.553-3.417.368-1.034.87-1.924 1.504-2.65a6.675 6.675 0 0 1 2.23-1.699 6.408 6.408 0 0 1 2.753-.603c2.005 0 3.509.808 4.522 2.425v-1.995h4.256v16.267c0 1.218-.205 2.292-.624 3.223-.42.931-.982 1.698-1.699 2.322-.716.625-1.575 1.095-2.557 1.423a9.859 9.859 0 0 1-3.141.49 10.16 10.16 0 0 1-3.111-.47 7.585 7.585 0 0 1-2.476-1.34 5.975 5.975 0 0 1-1.616-2.108c-.389-.829-.594-1.77-.594-2.813h3.96c0 .982.317 1.739.962 2.27.644.533 1.504.799 2.568.799 1.135 0 2.097-.307 2.885-.931.788-.624 1.177-1.473 1.177-2.537v-2.66zm-3.5-1.054c1.044 0 1.914-.4 2.599-1.197.686-.798 1.034-1.883 1.034-3.254 0-3.448-1.208-5.177-3.633-5.177-2.424 0-3.632 1.637-3.632 4.911 0 1.443.348 2.588 1.034 3.438.685.849 1.545 1.279 2.598 1.279z"/><path fill="#45CB85" d="M206.691 46.562v-4.42h4.553v4.42h-4.553zm24.289 0v-9.76c0-.983-.225-1.78-.685-2.395-.461-.613-1.075-.92-1.832-.92-.787 0-1.432.327-1.944.982-.511.655-.767 1.473-.767 2.455v9.628h-4.256v-9.689c0-.655-.041-1.187-.133-1.606-.092-.42-.235-.747-.44-.982a1.717 1.717 0 0 0-.798-.512c-.327-.102-.716-.143-1.177-.143-1.719 0-2.588 1.043-2.588 3.14v9.792h-4.256V30.458h3.99v2.354c.542-1.065 1.197-1.801 1.964-2.19.768-.389 1.678-.593 2.752-.593.543 0 1.034.04 1.453.133.43.092.809.235 1.146.44.338.204.665.47.962.797.297.328.614.717.921 1.177.44-.9 1.013-1.545 1.739-1.944.716-.399 1.596-.603 2.619-.603.808 0 1.545.133 2.231.409a5.106 5.106 0 0 1 1.739 1.146 5.27 5.27 0 0 1 1.125 1.719c.277.654.41 1.35.41 2.097v11.162h-4.175zm15.06 0c-.133-.42-.214-.9-.266-1.442-.501.562-1.166 1.023-1.995 1.36-.828.338-1.79.512-2.885.512-1.852 0-3.212-.41-4.072-1.228-.859-.818-1.289-1.882-1.289-3.192 0-1.156.184-2.077.553-2.762a4.092 4.092 0 0 1 1.534-1.617c.655-.389 1.433-.685 2.343-.87a50.58 50.58 0 0 1 2.967-.511c1.064-.154 1.791-.358 2.159-.604.368-.245.552-.665.552-1.227 0-.522-.245-.931-.736-1.228-.491-.297-1.146-.44-1.985-.44-.982 0-1.688.215-2.108.655-.419.44-.695 1.012-.798 1.739h-3.959c.02-.829.153-1.596.409-2.292a4.49 4.49 0 0 1 1.207-1.8c.553-.502 1.279-.89 2.18-1.167.9-.276 1.984-.41 3.274-.41 1.268 0 2.343.144 3.222.43.88.287 1.596.696 2.129 1.228.532.532.92 1.197 1.166 1.995.235.798.358 1.699.358 2.701v10.18h-3.96v-.01zm-.296-7.888c-.215.215-.532.389-.952.522-.419.133-1.013.276-1.8.43-1.228.245-2.067.542-2.517.92-.461.369-.686.91-.686 1.607 0 1.197.686 1.8 2.067 1.8.542 0 1.054-.092 1.524-.276a3.726 3.726 0 0 0 2.026-1.872c.205-.43.307-.88.307-1.361l.031-1.77z"/><path fill="#0851FF" stroke="#fff" d="m37.788 55.172.354.354.354-.354 7.99-7.99 27.777-27.776c3.062 7.55 1.518 16.527-4.604 22.649L38.142 73.572 6.625 42.055c-8.174-8.174-8.174-21.434 0-29.608C12.93 6.142 22.263 4.692 29.947 8.13h.003a20.653 20.653 0 0 1 6.283 4.317 20.26 20.26 0 0 1 1.518 1.697l.391.491.391-.49a20.779 20.779 0 0 1 7.802-6.014h.001a20.984 20.984 0 0 1 16.374-.287l-8.204 8.203-5.422 5.423-6.61 6.61-4.322 4.321-4.322-4.322-6.61-6.61a8.176 8.176 0 0 0-11.562 0 8.176 8.176 0 0 0 0 11.563l14.14 14.15 7.99 7.99z"/><path fill="#2BBC6C" stroke="#fff" d="M37.788 33.462 48.29 43.964 38.142 54.112 27.64 43.61 16.72 32.69l.01-.01-.353-.354a7.176 7.176 0 1 1 10.201-10.09l.003.002c.022.024.052.058.087.093l11.121 11.132z"/><path fill="#45CB85" stroke="#fff" d="M69.363 2.604c2.803-2.803 7.347-2.811 10.148-.01a7.176 7.176 0 0 1 0 10.148L48.997 43.257 38.85 33.108 69.363 2.604z"/></svg>