<svg xmlns="http://www.w3.org/2000/svg" width="24" height="24" fill="none" class="inline mr-2"><circle cx="12" cy="12" r="12" fill="#007AFF" fill-opacity=".3"/><circle cx="12" cy="12" r="9" fill="#0851FF"/><circle cx="12" cy="12" r="7" fill="#fff"/><path fill="#0851FF" d="M12 4c-4.42 0-8 3.58-8 8s3.58 8 8 8 8-3.58 8-8-3.58-8-8-8zm0 2.75c1.24 0 2.25 1.01 2.25 2.25s-1.01 2.25-2.25 2.25S9.75 10.24 9.75 9 10.76 6.75 12 6.75zm0 10.75c-1.86 0-3.49-.92-4.49-2.33C7.62 13.72 10.53 13 12 13c1.47 0 4.38.72 4.49 2.17-1 1.41-2.63 2.33-4.49 2.33z"/></svg>